<?xml version="1.0" standalone="no"?>
<!DOCTYPE svg PUBLIC "-//W3C//DTD SVG 20010904//EN"
 "http://www.w3.org/TR/2001/REC-SVG-20010904/DTD/svg10.dtd">
<svg version="1.0" xmlns="http://www.w3.org/2000/svg"
 width="512.000000pt" height="512.000000pt" viewBox="0 0 512.000000 512.000000"
 preserveAspectRatio="xMidYMid meet">
<metadata>
Created by potrace 1.11, written by Peter Selinger 2001-2013
</metadata>
<g transform="translate(0.000000,512.000000) scale(0.100000,-0.100000)"
fill="#000000" stroke="none">
<path d="M2193 4714 c-10 -26 5 -159 27 -244 6 -19 20 -76 33 -125 36 -136 62
-175 116 -175 38 0 36 57 -3 89 -16 13 -55 132 -76 231 -7 30 -18 84 -26 120
-8 36 -17 74 -19 84 -8 34 -41 47 -52 20z"/>
<path d="M3058 4495 c-1 -1 -25 -6 -51 -9 -42 -6 -183 -60 -197 -76 -3 -3 -25
-18 -49 -34 -25 -16 -92 -76 -150 -135 -113 -114 -182 -219 -183 -283 0 -44
10 -140 17 -146 14 -14 26 21 31 94 5 67 11 88 40 134 65 105 269 285 383 338
69 32 85 36 176 38 133 3 201 -18 267 -83 27 -26 48 -53 48 -60 0 -7 3 -13 8
-13 12 0 50 -111 68 -205 26 -128 26 -462 1 -519 -10 -22 -15 -47 -12 -57 5
-14 -2 -18 -37 -24 -39 -7 -94 -27 -156 -57 -25 -13 -40 -54 -25 -69 6 -6 28
0 60 16 28 15 66 28 84 30 19 1 47 6 62 10 l28 7 -6 -113 c-8 -144 -13 -190
-20 -197 -3 -3 -33 0 -68 7 -150 31 -265 23 -287 -19 -6 -11 -7 -21 -3 -21 4
-1 40 -2 78 -4 85 -3 174 -19 280 -50 87 -26 200 -69 219 -83 6 -5 22 -13 36
-17 14 -4 43 -16 65 -25 22 -10 63 -26 90 -36 28 -9 57 -23 65 -30 23 -19 117
-29 135 -14 35 29 2 83 -45 74 -15 -4 -38 0 -51 7 -13 7 -35 15 -49 17 -13 2
-29 7 -35 12 -5 5 -35 18 -65 30 -30 12 -68 27 -85 34 -16 7 -50 21 -75 30
-25 10 -62 26 -82 37 -20 10 -44 19 -53 19 -14 0 -16 8 -10 47 3 25 10 53 14
62 7 14 20 146 21 208 0 13 10 29 23 37 38 24 237 36 399 23 57 -4 71 3 66 34
-5 39 -62 52 -203 45 -125 -6 -232 -15 -251 -21 -15 -5 -23 35 -13 62 12 34
87 50 279 59 91 4 251 42 275 66 12 11 -21 39 -38 33 -33 -12 -124 -22 -272
-30 -49 -3 -117 -9 -150 -15 -95 -16 -90 -19 -91 58 -2 128 -13 287 -24 342
-6 30 -13 64 -14 75 -9 65 -66 180 -120 241 -60 70 -127 98 -256 109 -36 4
-70 8 -77 10 -6 2 -13 2 -15 0z"/>
<path d="M1717 4169 c-139 -15 -320 -141 -421 -293 -102 -154 -102 -328 0
-467 35 -48 156 -146 234 -191 54 -31 161 -68 194 -68 14 0 36 -4 50 -10 39
-14 125 -20 132 -8 11 18 -23 41 -83 54 -151 33 -237 67 -307 123 -21 17 -43
31 -49 31 -18 0 -126 122 -149 169 -19 38 -23 62 -22 137 1 127 31 186 156
310 84 82 101 94 178 123 74 29 95 33 185 33 117 0 194 -19 256 -64 144 -104
169 -243 79 -443 -4 -11 -11 -32 -14 -46 -3 -15 -19 -35 -35 -45 -40 -26 -104
-101 -133 -155 -21 -39 -23 -57 -23 -169 1 -104 5 -138 25 -200 13 -41 25 -84
27 -95 1 -11 26 -67 55 -124 54 -106 94 -151 136 -151 32 0 27 19 -18 69 -22
25 -40 50 -40 56 0 7 -8 23 -18 36 -75 98 -136 490 -88 563 24 38 128 136 143
136 7 0 13 4 13 8 0 12 137 79 196 97 29 8 81 13 133 12 72 -2 95 -7 145 -32
100 -50 150 -103 187 -198 30 -78 31 -87 26 -187 -3 -58 -11 -121 -18 -140
-57 -161 -95 -228 -161 -290 -73 -68 -296 -98 -386 -52 -23 13 -53 39 -66 60
-42 66 -106 116 -120 94 -10 -17 51 -121 99 -168 62 -62 100 -75 224 -76 67 0
105 6 171 27 104 33 153 71 200 155 19 34 43 69 53 78 9 9 17 22 17 30 0 7 12
50 28 95 23 71 27 98 27 203 0 74 -4 126 -11 135 -6 8 -14 26 -17 40 -8 34
-71 124 -111 161 -99 91 -184 123 -321 122 -86 0 -110 -4 -168 -28 -38 -15
-71 -25 -74 -22 -4 3 2 36 11 74 27 102 30 130 16 191 -46 213 -259 331 -543
300z"/>
<path d="M2943 4128 c-4 -7 -8 -19 -9 -26 -2 -8 -21 -72 -44 -143 -39 -121
-54 -218 -38 -234 17 -17 37 8 52 62 9 32 21 67 26 78 5 11 13 36 19 55 5 19
16 53 24 75 8 22 17 59 20 83 3 34 1 45 -14 52 -23 13 -26 13 -36 -2z"/>
<path d="M1678 3752 c-47 -34 -58 -76 -33 -135 9 -23 21 -52 26 -64 11 -29 51
-30 86 -3 14 11 31 20 37 20 7 0 24 31 39 69 22 55 25 74 17 95 -19 52 -111
61 -172 18z"/>
<path d="M3604 3325 c-36 -36 -30 -45 25 -38 66 8 144 -20 193 -69 34 -34 52
-42 86 -39 20 2 5 60 -22 90 -35 39 -122 70 -215 76 -35 3 -48 -1 -67 -20z"/>
<path d="M2376 3214 c-27 -19 -46 -44 -67 -91 -16 -36 -29 -71 -29 -79 0 -19
59 -44 105 -44 42 0 105 52 138 114 29 57 29 62 -3 96 -37 39 -89 41 -144 4z"/>
<path d="M1733 3083 c-12 -2 -27 -11 -33 -19 -7 -8 -17 -14 -22 -14 -13 0
-154 -100 -193 -137 -47 -43 -168 -210 -209 -288 -36 -69 -59 -168 -54 -239 3
-55 49 -128 100 -162 82 -55 144 -69 313 -69 83 0 184 4 225 8 143 16 151 16
156 2 3 -7 -5 -28 -17 -45 -31 -42 -32 -155 -1 -256 19 -63 93 -193 133 -234
8 -8 25 -30 38 -47 14 -20 31 -33 44 -33 13 0 31 -6 42 -14 20 -13 98 -41 146
-52 13 -3 65 -7 115 -9 79 -3 101 0 171 24 116 41 211 89 224 113 11 20 9 21
-27 15 -22 -3 -48 -8 -59 -10 -25 -5 -35 9 -35 50 0 29 4 33 38 42 20 6 49 11
64 11 35 0 98 30 98 47 0 16 -66 20 -135 9 -11 -2 -28 1 -39 6 -18 10 -19 42
-2 118 3 14 11 51 16 82 6 32 17 76 25 99 15 41 7 79 -15 79 -18 0 -50 -40
-50 -63 0 -13 -5 -28 -10 -33 -13 -13 -38 -129 -46 -214 -4 -36 -8 -67 -10
-69 -8 -8 -87 -1 -99 9 -10 8 -12 41 -8 124 5 110 4 114 -17 121 -28 9 -20 28
16 39 16 4 38 13 49 19 159 84 165 88 165 109 0 29 -14 28 -76 -3 -92 -46
-181 -70 -309 -84 -102 -12 -224 0 -260 26 -5 4 -23 10 -40 13 -39 8 -79 64
-84 119 -2 14 -41 7 -60 -12 -26 -26 -45 -29 -267 -37 -191 -6 -204 -6 -274
16 -52 16 -86 34 -114 61 l-41 38 1 93 c0 113 19 160 122 305 119 168 287 303
369 298 45 -2 63 10 43 29 -16 16 -71 26 -107 19z m431 -1013 c33 0 52 -184
22 -209 -14 -12 -84 -9 -105 3 -25 16 -42 171 -25 234 l6 22 44 -25 c23 -14
49 -25 58 -25z m376 -30 c-8 -15 -7 -26 4 -42 7 -13 12 -31 11 -41 -2 -10 -6
-46 -10 -79 -3 -34 -8 -65 -12 -70 -13 -22 -262 26 -263 51 -1 3 -1 44 -2 91
l-1 85 79 3 c43 1 99 6 124 11 75 15 82 14 70 -9z m-354 -295 c1 -16 -1 -36
-4 -43 -5 -13 -7 -11 -47 51 l-18 29 34 -4 c30 -3 34 -6 35 -33z m273 -10 c24
-2 50 -10 57 -17 10 -11 19 -103 15 -165 -1 -14 -53 -10 -156 11 -5 2 -40 17
-76 34 -54 26 -68 38 -72 60 -3 16 0 33 10 44 8 9 15 22 17 30 5 33 14 35 87
21 40 -7 93 -15 118 -18z m277 -66 c20 -61 9 -84 -48 -103 -28 -9 -63 -16 -79
-16 -27 0 -29 3 -29 37 0 40 19 104 34 115 6 4 32 6 60 4 47 -2 50 -4 62 -37z"/>
<path d="M3390 2876 c-43 -16 -53 -52 -18 -65 13 -5 32 -5 43 -1 31 12 105 5
163 -14 160 -54 262 -161 261 -276 -1 -103 -85 -272 -191 -381 -71 -74 -148
-139 -164 -139 -4 0 -18 -9 -30 -21 -22 -20 -22 -23 -7 -68 17 -53 25 -89 52
-221 16 -76 19 -129 17 -265 -3 -159 -5 -179 -39 -305 -33 -124 -78 -253 -102
-291 -9 -13 -186 -117 -265 -155 -153 -73 -304 -119 -571 -172 -70 -13 -288
-15 -360 -2 -35 6 -73 13 -84 15 -149 25 -337 156 -456 315 -28 38 -73 144
-96 225 -34 127 -38 371 -6 480 70 242 142 372 246 449 37 27 67 55 67 63 0
17 -44 17 -59 -1 -6 -7 -25 -16 -41 -20 -38 -7 -105 -75 -149 -149 -40 -68
-122 -268 -142 -347 -20 -81 -17 -374 5 -460 9 -36 19 -76 22 -90 13 -60 66
-165 114 -225 141 -177 350 -298 566 -325 78 -10 328 -15 342 -6 4 2 30 7 57
10 28 4 82 15 120 25 39 11 84 22 100 24 86 15 257 77 325 118 55 33 69 36 96
22 27 -16 84 11 146 68 51 48 130 189 166 294 27 81 61 235 70 315 9 79 8 255
-2 330 -9 75 -52 240 -65 253 -28 28 -6 62 74 118 78 54 130 106 185 185 163
236 179 412 48 546 -62 65 -134 106 -230 132 -98 26 -160 30 -208 12z"/>
<path d="M3353 2624 c-4 -11 7 -29 35 -56 23 -22 44 -49 47 -61 9 -33 -38
-130 -106 -220 -32 -43 -59 -82 -59 -87 0 -13 23 -18 46 -10 31 12 121 118
145 170 11 25 27 58 34 73 25 47 19 110 -12 148 -43 50 -117 75 -130 43z"/>
</g>
</svg>
