<svg id="svg" xmlns="http://www.w3.org/2000/svg" xmlns:xlink="http://www.w3.org/1999/xlink" width="400" height="400" viewBox="0, 0, 400,400"><g id="svgg"><path id="path0" d="M171.522 30.950 C 170.684 31.563,170.808 38.162,171.733 42.171 C 172.077 43.659,172.324 45.003,172.284 45.158 C 172.176 45.566,172.958 49.116,173.298 49.760 C 173.456 50.060,173.585 50.817,173.585 51.442 C 173.585 52.513,173.755 53.008,175.199 56.153 C 175.522 56.856,175.786 57.924,175.786 58.527 C 175.786 59.130,175.919 59.757,176.082 59.921 C 176.245 60.086,176.466 60.928,176.572 61.792 C 176.678 62.657,176.969 64.002,177.218 64.780 C 177.468 65.558,177.819 66.796,177.999 67.531 C 178.179 68.267,178.441 68.868,178.581 68.868 C 178.866 68.868,179.794 70.896,179.940 71.841 C 180.030 72.424,180.683 72.832,183.423 74.015 C 185.056 74.720,185.442 74.669,186.502 73.609 C 188.131 71.981,187.850 70.532,185.429 68.076 C 183.696 66.317,183.386 65.818,183.041 64.238 C 182.823 63.239,182.420 62.068,182.144 61.635 C 181.869 61.203,181.673 60.409,181.709 59.871 C 181.747 59.309,181.571 58.725,181.296 58.496 C 181.033 58.278,180.818 57.763,180.818 57.351 C 180.818 56.940,180.676 56.604,180.503 56.604 C 180.330 56.604,180.189 56.132,180.189 55.555 C 180.189 54.978,179.924 53.669,179.600 52.646 C 179.276 51.623,178.852 49.599,178.658 48.147 C 178.464 46.696,178.181 45.351,178.029 45.160 C 177.675 44.712,177.198 42.522,176.530 38.282 C 176.237 36.420,175.814 34.745,175.591 34.559 C 175.340 34.352,175.253 33.875,175.365 33.319 C 175.731 31.487,173.048 29.834,171.522 30.950 M239.623 48.956 C 239.363 49.012,237.877 49.186,236.321 49.343 C 233.826 49.594,230.674 50.326,228.774 51.096 C 226.623 51.967,223.273 53.468,221.855 54.195 C 221.509 54.373,220.837 54.715,220.362 54.955 C 219.886 55.195,219.497 55.514,219.497 55.662 C 219.497 55.811,219.178 56.032,218.789 56.153 C 217.832 56.452,213.078 59.824,211.950 61.005 C 211.727 61.238,206.635 65.721,205.519 66.667 C 203.848 68.083,200.000 72.050,200.000 72.357 C 200.000 72.522,199.151 73.522,198.113 74.579 C 197.075 75.636,196.226 76.575,196.226 76.664 C 196.226 76.754,195.880 77.281,195.457 77.836 C 195.034 78.391,194.595 79.212,194.483 79.661 C 194.370 80.110,194.080 80.642,193.837 80.843 C 193.595 81.044,193.396 81.393,193.396 81.618 C 193.396 81.843,193.042 82.448,192.610 82.962 C 192.178 83.475,191.824 84.065,191.824 84.273 C 191.824 84.480,191.541 85.009,191.195 85.449 C 190.849 85.889,190.566 86.484,190.566 86.772 C 190.566 87.060,190.444 87.430,190.294 87.594 C 189.316 88.670,189.008 93.487,189.858 94.427 C 190.315 94.932,190.394 95.539,190.325 98.000 C 190.236 101.126,190.529 102.201,191.472 102.201 C 192.809 102.201,193.225 101.103,193.296 97.378 C 193.422 90.767,193.588 89.223,194.296 88.050 C 194.662 87.445,195.091 86.667,195.251 86.321 C 195.411 85.975,196.226 84.698,197.063 83.484 C 197.900 82.270,198.782 80.898,199.022 80.435 C 199.262 79.973,200.211 79.056,201.129 78.398 C 202.264 77.585,202.805 76.977,202.815 76.504 C 202.824 76.097,203.147 75.638,203.592 75.403 C 204.011 75.181,205.673 73.718,207.287 72.150 C 208.900 70.583,210.454 69.167,210.741 69.005 C 211.027 68.843,212.381 67.687,213.749 66.436 C 215.117 65.184,217.076 63.563,218.102 62.833 C 219.129 62.103,220.110 61.329,220.283 61.113 C 220.456 60.897,221.234 60.433,222.013 60.081 C 222.791 59.730,223.640 59.320,223.899 59.171 C 225.199 58.423,229.298 56.558,229.891 56.443 C 230.263 56.372,230.730 56.185,230.928 56.029 C 231.127 55.873,231.643 55.668,232.075 55.573 C 232.508 55.479,233.215 55.309,233.648 55.196 C 234.080 55.083,236.132 54.935,238.208 54.868 C 240.283 54.800,242.547 54.720,243.239 54.690 C 243.931 54.660,244.709 54.715,244.969 54.812 C 245.468 54.999,249.014 55.358,250.280 55.350 C 250.693 55.348,251.188 55.535,251.380 55.766 C 251.737 56.195,254.688 57.224,255.618 57.243 C 258.258 57.298,265.613 65.341,266.968 69.654 C 267.022 69.827,267.246 70.393,267.466 70.912 C 267.686 71.431,268.233 72.722,268.681 73.781 C 269.130 74.841,269.497 76.133,269.497 76.652 C 269.497 77.171,269.688 78.073,269.921 78.657 C 270.155 79.240,270.374 80.425,270.408 81.289 C 270.468 82.808,270.863 84.700,271.394 86.006 C 272.090 87.722,272.503 97.349,272.438 110.396 C 272.389 120.480,272.381 120.534,270.438 124.691 C 269.426 126.855,269.223 128.302,269.930 128.302 C 270.168 128.302,270.557 128.541,270.795 128.832 C 271.170 129.293,271.159 129.338,270.712 129.171 C 270.429 129.065,269.898 129.189,269.531 129.446 C 268.858 129.917,266.852 130.378,264.036 130.709 C 263.110 130.817,261.981 131.242,261.180 131.783 C 260.451 132.275,259.300 132.817,258.622 132.988 C 254.174 134.107,252.516 135.648,252.516 138.661 C 252.516 141.042,253.760 141.507,255.426 139.749 C 255.814 139.340,256.294 139.002,256.492 138.999 C 256.689 138.996,256.932 138.781,257.032 138.522 C 257.132 138.263,257.536 138.045,257.930 138.039 C 258.325 138.034,259.709 137.610,261.006 137.097 C 262.788 136.394,263.879 136.166,265.469 136.165 C 266.626 136.164,267.660 136.022,267.767 135.849 C 267.874 135.676,268.350 135.535,268.824 135.535 C 269.298 135.535,269.846 135.374,270.042 135.178 C 270.681 134.539,271.297 135.089,271.201 136.214 C 271.152 136.792,270.957 138.892,270.769 140.881 C 270.580 142.869,270.364 146.832,270.288 149.686 C 270.116 156.176,269.873 158.677,269.377 159.088 C 268.741 159.617,266.151 159.714,264.872 159.258 C 264.216 159.024,263.157 158.826,262.519 158.819 C 261.880 158.811,261.270 158.664,261.164 158.491 C 261.057 158.318,260.723 158.176,260.422 158.176 C 260.121 158.176,259.713 158.015,259.516 157.818 C 259.121 157.423,258.850 157.396,252.011 157.063 C 248.579 156.896,247.199 156.931,247.039 157.190 C 246.918 157.386,246.201 157.547,245.446 157.547 C 243.855 157.547,240.881 159.915,240.881 161.182 C 240.881 161.942,242.013 162.589,242.834 162.298 C 244.361 161.756,254.240 162.194,255.795 162.872 C 256.785 163.304,257.875 163.524,258.810 163.481 C 259.723 163.439,260.538 163.599,260.974 163.904 C 261.416 164.214,262.127 164.349,262.912 164.273 C 263.757 164.191,264.151 164.277,264.151 164.545 C 264.151 164.795,264.697 164.960,265.657 165.000 C 266.545 165.038,267.737 165.375,268.565 165.822 C 269.337 166.239,271.030 166.760,272.327 166.980 C 274.907 167.418,275.778 167.724,277.194 168.689 C 277.709 169.040,278.476 169.373,278.899 169.430 C 279.322 169.487,279.962 169.696,280.322 169.896 C 280.681 170.096,281.086 170.228,281.222 170.189 C 281.358 170.150,282.221 170.474,283.139 170.908 C 284.058 171.343,284.950 171.698,285.123 171.698 C 285.296 171.698,285.693 171.981,286.006 172.327 C 286.319 172.673,286.771 172.956,287.011 172.956 C 287.250 172.956,288.042 173.264,288.770 173.641 C 289.499 174.018,290.307 174.360,290.566 174.402 C 291.895 174.613,295.912 176.258,295.912 176.591 C 295.912 176.802,296.372 177.044,296.934 177.127 C 298.214 177.318,300.026 178.020,300.573 178.538 C 300.801 178.754,301.394 178.931,301.891 178.931 C 302.387 178.931,302.869 179.053,302.961 179.203 C 303.054 179.353,303.643 179.558,304.270 179.660 C 304.995 179.778,305.793 180.238,306.457 180.921 C 307.405 181.898,307.721 182.018,309.881 182.220 C 311.189 182.343,312.340 182.573,312.438 182.731 C 312.965 183.584,316.671 182.718,316.924 181.682 C 316.955 181.553,317.087 181.435,317.217 181.420 C 317.930 181.339,318.139 180.739,317.895 179.478 C 317.754 178.745,317.631 178.039,317.624 177.909 C 317.616 177.779,317.413 177.673,317.172 177.673 C 316.931 177.673,316.653 177.461,316.553 177.201 C 316.453 176.942,316.155 176.730,315.890 176.730 C 315.626 176.730,315.409 176.605,315.409 176.452 C 315.409 175.884,314.137 175.864,313.431 176.419 C 312.350 177.270,310.515 176.925,309.040 175.593 C 308.045 174.696,307.623 174.528,306.355 174.528 C 305.006 174.528,304.156 174.235,302.044 173.042 C 300.733 172.301,298.524 171.384,298.052 171.384 C 297.782 171.384,297.385 171.171,297.170 170.912 C 296.955 170.653,296.557 170.440,296.287 170.440 C 296.017 170.440,295.150 170.144,294.360 169.783 C 292.303 168.841,291.756 168.618,290.959 168.395 C 290.570 168.286,290.252 168.077,290.252 167.931 C 290.252 167.685,287.847 167.130,287.662 167.333 C 287.504 167.506,284.906 165.921,284.906 165.652 C 284.906 165.503,284.729 165.412,284.513 165.450 C 283.060 165.705,277.756 163.416,277.013 162.214 C 276.902 162.035,276.095 161.864,275.219 161.835 C 273.205 161.768,273.098 161.644,273.579 159.927 C 273.796 159.151,273.883 158.154,273.772 157.711 C 273.661 157.268,273.716 156.633,273.894 156.300 C 274.072 155.966,274.242 155.297,274.271 154.812 C 274.300 154.327,274.640 153.577,275.026 153.145 C 275.789 152.289,276.165 148.261,275.649 146.456 C 275.504 145.948,275.542 145.227,275.739 144.727 C 275.925 144.254,276.169 142.594,276.281 141.038 C 276.791 133.928,277.111 133.343,280.613 133.118 C 281.844 133.040,282.925 132.869,283.014 132.740 C 283.103 132.610,284.167 132.490,285.377 132.472 C 287.715 132.437,288.296 132.356,288.898 131.980 C 289.105 131.851,292.875 131.656,297.277 131.547 L 305.280 131.348 306.753 132.211 C 308.083 132.991,308.319 133.036,309.184 132.678 C 309.710 132.460,310.841 132.313,311.697 132.352 C 314.378 132.474,315.153 131.917,314.924 130.031 C 314.674 127.967,313.221 126.730,311.049 126.730 C 310.576 126.730,310.054 126.596,309.890 126.432 C 309.020 125.565,303.899 125.490,295.755 126.225 C 292.469 126.522,288.707 126.813,287.395 126.873 C 286.084 126.932,283.928 127.082,282.603 127.206 C 281.279 127.330,280.145 127.380,280.083 127.316 C 280.021 127.253,279.772 127.352,279.529 127.535 C 278.221 128.526,277.828 127.969,277.866 125.174 L 277.902 122.517 279.124 121.483 C 279.838 120.880,280.698 120.448,281.192 120.445 C 281.658 120.442,282.117 120.314,282.212 120.159 C 282.420 119.823,284.406 119.492,286.792 119.395 C 287.744 119.356,288.838 119.213,289.224 119.077 C 289.934 118.826,295.289 118.210,296.305 118.261 C 297.813 118.338,301.037 118.273,303.145 118.122 C 308.497 117.739,310.230 117.436,311.933 116.582 C 312.875 116.110,314.086 115.723,314.625 115.723 C 315.164 115.723,316.162 115.459,316.843 115.135 C 317.525 114.812,318.648 114.446,319.340 114.323 C 321.237 113.983,322.966 111.321,321.289 111.321 C 321.064 111.321,320.709 111.149,320.500 110.940 C 320.026 110.466,317.987 110.584,315.794 111.210 C 314.882 111.471,313.651 111.619,313.060 111.539 C 312.468 111.460,311.729 111.569,311.417 111.782 C 311.104 111.995,309.938 112.199,308.823 112.235 C 307.709 112.272,306.709 112.356,306.600 112.424 C 306.491 112.491,303.299 112.636,299.506 112.747 C 295.713 112.857,292.186 113.064,291.667 113.207 C 291.148 113.351,289.648 113.555,288.335 113.661 C 285.920 113.856,285.447 113.936,283.176 114.538 C 282.484 114.721,281.251 114.872,280.435 114.873 C 279.620 114.874,279.026 114.995,279.117 115.142 C 279.208 115.289,279.133 115.409,278.949 115.409 C 278.566 115.409,278.571 115.486,278.507 108.113 C 278.475 104.394,278.339 102.427,278.097 102.185 C 277.852 101.940,277.825 101.509,278.015 100.849 C 278.184 100.259,278.169 99.092,277.977 97.891 C 277.803 96.799,277.713 94.952,277.779 93.787 C 277.913 91.391,277.286 85.326,276.810 84.409 C 276.637 84.077,276.426 82.781,276.341 81.530 C 276.255 80.278,276.024 79.060,275.826 78.822 C 275.629 78.584,275.411 77.587,275.343 76.607 C 275.275 75.627,275.078 74.652,274.905 74.441 C 274.629 74.105,273.946 72.020,273.713 70.809 C 273.636 70.404,272.914 68.884,272.344 67.925 C 272.190 67.665,271.755 66.745,271.377 65.881 C 271.000 65.016,270.370 63.881,269.977 63.359 C 269.584 62.838,268.978 61.880,268.630 61.232 C 267.381 58.902,264.938 56.211,262.841 54.858 C 262.207 54.448,261.597 53.966,261.486 53.786 C 261.375 53.606,261.037 53.459,260.735 53.459 C 260.434 53.459,259.588 53.019,258.855 52.480 C 257.507 51.488,255.961 50.938,254.245 50.840 C 253.726 50.810,253.149 50.687,252.963 50.565 C 252.162 50.043,240.885 48.682,239.623 48.956 M143.015 73.756 C 142.954 73.818,141.281 73.894,139.298 73.924 C 135.257 73.987,131.128 74.441,130.676 74.872 C 130.512 75.029,129.875 75.158,129.261 75.159 C 128.647 75.160,127.738 75.373,127.241 75.632 C 124.832 76.889,123.098 77.841,122.956 77.985 C 122.869 78.073,122.352 78.304,121.806 78.499 C 117.997 79.860,105.346 90.255,105.346 92.023 C 105.346 92.252,104.992 92.670,104.560 92.953 C 104.127 93.237,103.774 93.648,103.774 93.867 C 103.774 94.087,103.243 94.747,102.594 95.334 C 101.946 95.921,101.231 96.752,101.006 97.179 C 100.781 97.606,100.355 98.411,100.060 98.966 C 99.765 99.522,99.280 100.159,98.982 100.381 C 98.683 100.604,98.388 101.069,98.325 101.415 C 98.112 102.590,97.713 103.930,97.482 104.245 C 97.205 104.623,96.409 107.036,96.516 107.171 C 96.557 107.223,96.341 107.648,96.035 108.114 C 95.245 109.318,94.995 121.242,95.732 122.572 C 96.561 124.067,97.170 125.834,97.170 126.744 C 97.170 127.228,97.524 128.045,97.956 128.559 C 98.388 129.073,98.742 129.643,98.742 129.827 C 98.742 130.188,100.193 132.428,100.601 132.698 C 100.868 132.874,102.415 135.157,103.076 136.350 C 103.537 137.181,105.298 138.702,106.546 139.345 C 107.010 139.584,107.650 140.101,107.968 140.494 C 108.286 140.886,108.952 141.418,109.449 141.674 C 109.945 141.931,110.688 142.478,111.100 142.889 C 111.511 143.300,112.208 143.830,112.649 144.067 C 113.090 144.303,114.045 144.986,114.773 145.583 C 115.500 146.181,116.278 146.697,116.501 146.729 C 116.725 146.762,117.705 147.299,118.680 147.923 C 119.655 148.546,120.591 149.057,120.761 149.057 C 120.930 149.057,121.069 149.173,121.069 149.315 C 121.069 149.656,123.660 150.943,124.346 150.943 C 124.641 150.943,125.687 151.328,126.670 151.799 C 127.654 152.270,128.845 152.674,129.316 152.697 C 129.787 152.721,130.358 152.893,130.584 153.081 C 130.810 153.269,132.392 153.565,134.099 153.740 C 135.806 153.915,137.350 154.206,137.532 154.387 C 137.713 154.569,138.265 154.717,138.758 154.717 C 139.251 154.717,140.096 154.946,140.637 155.226 C 141.780 155.817,148.337 156.263,149.085 155.800 C 149.714 155.411,148.756 153.145,147.963 153.145 C 147.850 153.145,147.276 152.778,146.688 152.330 C 145.895 151.725,145.110 151.471,143.643 151.344 C 142.556 151.251,141.525 151.078,141.352 150.960 C 141.179 150.842,140.472 150.707,139.780 150.660 C 139.088 150.612,138.299 150.373,138.026 150.129 C 137.753 149.885,137.018 149.686,136.393 149.686 C 135.768 149.686,135.176 149.554,135.076 149.392 C 134.976 149.231,134.084 148.935,133.092 148.735 C 132.101 148.534,130.888 148.156,130.399 147.894 C 129.909 147.632,129.130 147.374,128.669 147.319 C 127.231 147.150,126.905 147.021,125.779 146.176 C 125.178 145.725,124.334 145.249,123.905 145.118 C 123.146 144.886,121.674 143.953,120.819 143.160 C 120.586 142.944,120.277 142.767,120.133 142.767 C 119.989 142.767,119.256 142.271,118.505 141.664 C 117.753 141.058,116.997 140.449,116.824 140.312 C 116.651 140.175,116.297 139.981,116.038 139.881 C 112.258 138.424,103.419 128.783,102.540 125.157 C 102.309 124.206,102.015 123.286,101.886 123.113 C 101.757 122.940,101.577 122.374,101.485 121.855 C 101.394 121.336,101.170 120.063,100.987 119.025 C 100.520 116.375,101.525 106.320,102.354 105.346 C 102.575 105.086,102.853 104.555,102.972 104.165 C 103.091 103.775,103.512 103.067,103.907 102.593 C 104.302 102.118,104.802 101.189,105.018 100.528 C 105.233 99.868,105.607 99.251,105.849 99.158 C 106.091 99.065,106.289 98.810,106.289 98.591 C 106.289 97.651,116.391 87.368,119.261 85.387 C 120.256 84.700,121.069 84.033,121.069 83.903 C 121.069 83.774,121.263 83.742,121.500 83.833 C 121.737 83.924,122.016 83.778,122.119 83.509 C 122.223 83.239,122.526 83.019,122.793 83.019 C 123.060 83.019,123.525 82.889,123.825 82.731 C 125.244 81.982,131.380 79.560,131.863 79.558 C 132.067 79.557,132.608 79.360,133.067 79.121 C 134.591 78.325,147.985 78.323,150.682 79.117 C 151.204 79.271,151.978 79.449,153.427 79.748 C 153.841 79.833,154.474 80.109,154.833 80.360 C 155.192 80.612,155.892 80.818,156.389 80.818 C 156.886 80.818,157.709 81.114,158.218 81.476 C 158.726 81.838,159.318 82.160,159.534 82.192 C 160.001 82.261,161.692 83.439,162.812 84.477 C 163.253 84.886,163.748 85.220,163.911 85.220 C 164.363 85.220,168.239 89.332,168.239 89.811 C 168.239 90.042,168.714 90.705,169.294 91.286 C 169.903 91.895,170.437 92.809,170.557 93.449 C 170.672 94.059,171.077 95.181,171.458 95.942 C 172.990 99.006,172.204 110.161,170.372 111.353 C 170.212 111.458,170.026 111.882,169.958 112.297 C 169.845 112.994,169.609 114.007,168.963 116.566 C 168.824 117.116,168.392 117.931,168.003 118.377 C 167.521 118.929,167.296 119.590,167.296 120.453 C 167.296 123.078,165.839 124.949,162.676 126.386 C 162.298 126.559,161.400 127.444,160.680 128.354 C 159.961 129.265,158.666 130.649,157.804 131.431 C 156.839 132.307,155.876 133.601,155.297 134.801 C 154.781 135.872,154.049 137.082,153.673 137.488 C 153.296 137.895,152.985 138.365,152.981 138.532 C 152.964 139.387,152.415 141.406,152.095 141.793 C 151.624 142.362,151.470 156.117,151.910 158.333 C 152.081 159.198,152.276 160.259,152.342 160.692 C 152.497 161.698,153.023 163.385,153.344 163.905 C 153.481 164.126,153.558 164.662,153.515 165.094 C 153.472 165.527,153.715 166.423,154.057 167.087 C 154.398 167.750,154.603 168.486,154.512 168.721 C 154.422 168.957,154.647 169.471,155.012 169.863 C 155.377 170.255,155.608 170.753,155.525 170.969 C 155.441 171.186,155.509 171.447,155.674 171.549 C 155.840 171.652,155.975 172.411,155.975 173.237 C 155.975 174.062,156.072 174.835,156.190 174.953 C 156.523 175.286,157.215 177.447,157.066 177.689 C 156.993 177.807,157.213 178.156,157.555 178.466 C 157.896 178.775,158.181 179.254,158.186 179.530 C 158.192 179.806,158.404 180.306,158.658 180.642 C 158.912 180.978,159.119 181.486,159.119 181.772 C 159.119 182.058,159.403 182.549,159.748 182.862 C 160.094 183.175,160.377 183.667,160.377 183.955 C 160.377 184.243,160.798 185.035,161.312 185.714 C 161.826 186.394,162.251 187.268,162.255 187.657 C 162.260 188.046,162.425 188.365,162.623 188.365 C 163.098 188.365,163.814 189.332,163.826 189.991 C 163.849 191.166,167.974 194.881,169.639 195.226 C 171.022 195.512,172.956 195.110,172.956 194.536 C 172.956 193.819,172.079 192.447,171.223 191.824 C 170.629 191.392,170.139 190.879,170.134 190.685 C 170.130 190.491,169.493 189.748,168.720 189.036 C 167.154 187.593,166.352 186.265,166.352 185.117 C 166.352 184.697,166.130 184.169,165.858 183.943 C 165.585 183.717,165.102 183.028,164.782 182.411 C 164.463 181.794,163.908 181.043,163.548 180.742 C 163.062 180.336,162.893 179.828,162.893 178.777 C 162.893 177.997,162.754 177.358,162.585 177.358 C 162.415 177.358,162.179 176.969,162.061 176.494 C 161.943 176.018,161.607 175.275,161.315 174.843 C 161.023 174.410,160.540 172.500,160.243 170.597 C 159.946 168.695,159.430 166.538,159.097 165.805 C 158.763 165.072,158.491 164.141,158.491 163.735 C 158.491 163.330,158.384 162.892,158.255 162.763 C 157.595 162.106,156.564 152.062,156.590 146.541 C 156.614 141.321,157.430 137.982,158.801 137.487 C 159.272 137.317,159.656 136.909,162.312 133.752 C 163.064 132.858,163.841 132.115,164.040 132.101 C 164.238 132.087,164.806 131.616,165.303 131.053 C 166.401 129.810,168.678 127.987,169.133 127.987 C 169.315 127.987,169.861 127.614,170.345 127.157 C 170.830 126.700,171.934 125.987,172.799 125.571 C 173.664 125.155,174.583 124.704,174.843 124.568 C 176.579 123.659,178.454 122.681,180.458 121.641 C 181.730 120.981,183.219 120.440,183.768 120.440 C 184.317 120.440,185.045 120.253,185.386 120.023 C 187.122 118.857,195.786 118.214,199.843 118.951 C 200.362 119.045,201.352 119.226,202.044 119.352 C 202.736 119.479,203.520 119.770,203.787 120.001 C 204.054 120.231,204.974 120.604,205.831 120.829 C 206.688 121.054,207.814 121.505,208.333 121.832 C 208.852 122.158,209.804 122.757,210.449 123.162 C 211.094 123.568,211.766 123.899,211.943 123.899 C 212.120 123.899,212.264 124.024,212.264 124.176 C 212.264 124.328,212.697 124.631,213.227 124.851 C 213.756 125.070,214.570 125.754,215.035 126.370 C 216.110 127.796,217.657 129.224,218.139 129.236 C 218.344 129.241,218.610 129.557,218.731 129.938 C 218.852 130.319,219.109 130.810,219.302 131.028 C 219.496 131.246,219.800 131.607,219.978 131.829 C 220.381 132.330,221.597 135.492,222.171 137.532 C 222.408 138.371,222.804 139.290,223.051 139.576 C 224.896 141.704,224.592 158.950,222.655 162.085 C 222.283 162.687,221.920 163.880,221.848 164.737 C 221.767 165.699,221.241 167.269,220.472 168.842 C 219.787 170.243,219.187 171.778,219.138 172.252 C 219.089 172.725,218.908 173.305,218.735 173.540 C 218.312 174.114,217.714 175.140,217.226 176.128 C 216.710 177.170,214.830 179.742,213.915 180.655 C 213.526 181.044,213.208 181.487,213.208 181.641 C 213.208 181.795,212.791 182.313,212.282 182.794 C 211.773 183.274,211.273 183.910,211.171 184.208 C 210.909 184.971,208.169 186.936,207.260 187.013 C 206.843 187.048,206.419 187.195,206.317 187.340 C 205.798 188.077,198.820 190.360,197.013 190.384 C 195.975 190.398,194.984 190.498,194.811 190.606 C 193.048 191.714,184.147 191.416,181.833 190.172 C 178.662 188.467,178.464 188.369,178.201 188.367 C 177.487 188.361,174.976 185.807,174.911 185.019 C 174.866 184.471,174.190 183.493,173.000 182.254 C 171.987 181.199,171.058 180.020,170.935 179.633 C 170.813 179.247,170.553 178.931,170.358 178.931 C 170.163 178.931,169.596 178.542,169.100 178.066 C 168.462 177.456,167.855 177.195,167.038 177.182 C 166.402 177.171,165.597 177.044,165.252 176.899 C 164.734 176.683,164.692 176.712,165.016 177.061 C 165.232 177.294,165.409 177.728,165.409 178.025 C 165.409 178.322,165.609 178.966,165.854 179.456 C 166.099 179.945,166.452 180.700,166.638 181.132 C 166.824 181.564,167.119 182.166,167.293 182.469 C 167.468 182.771,167.752 183.267,167.927 183.569 C 168.101 183.872,168.323 184.332,168.421 184.591 C 169.405 187.201,175.961 193.870,178.107 194.445 C 178.647 194.589,179.350 194.943,179.670 195.230 C 180.044 195.566,180.884 195.772,182.028 195.810 C 183.005 195.842,184.230 195.967,184.748 196.087 C 186.525 196.497,193.434 196.629,193.803 196.260 C 193.995 196.068,195.176 195.912,196.428 195.912 C 197.680 195.912,198.781 195.789,198.874 195.639 C 198.966 195.489,199.647 195.296,200.386 195.211 C 201.125 195.125,202.366 194.775,203.145 194.432 C 205.045 193.594,206.672 193.082,207.431 193.082 C 207.775 193.082,208.331 192.874,208.666 192.620 C 209.002 192.366,209.534 192.154,209.848 192.148 C 210.412 192.138,212.532 190.726,212.952 190.080 C 213.072 189.897,213.885 189.259,214.760 188.663 C 215.646 188.059,216.351 187.336,216.352 187.031 C 216.352 186.730,216.641 186.305,216.994 186.088 C 217.347 185.870,218.019 184.933,218.488 184.006 C 218.956 183.078,219.640 182.204,220.008 182.063 C 220.457 181.890,220.676 181.533,220.676 180.971 C 220.676 180.511,220.954 179.758,221.293 179.297 C 221.632 178.836,222.004 178.105,222.119 177.673 C 222.350 176.807,224.019 174.843,224.524 174.843 C 224.699 174.843,224.843 174.285,224.843 173.603 C 224.843 172.922,224.984 172.277,225.157 172.170 C 225.330 172.063,225.472 171.717,225.472 171.401 C 225.472 171.085,225.683 170.421,225.941 169.926 C 226.200 169.430,226.412 168.664,226.413 168.223 C 226.414 167.782,226.542 167.287,226.697 167.123 C 226.851 166.958,227.278 165.621,227.644 164.151 C 228.011 162.681,228.450 161.431,228.621 161.373 C 228.791 161.316,228.931 160.439,228.931 159.426 C 228.931 158.413,229.051 157.510,229.199 157.419 C 229.685 157.118,229.829 153.379,229.556 148.113 C 229.293 143.023,229.114 142.043,227.969 139.421 C 227.656 138.705,227.300 137.572,227.178 136.905 C 227.057 136.238,226.712 135.338,226.413 134.906 C 226.113 134.473,225.501 133.341,225.053 132.390 C 224.605 131.439,223.949 130.482,223.597 130.265 C 223.244 130.047,222.956 129.658,222.956 129.400 C 222.956 129.142,222.824 128.931,222.664 128.931 C 222.503 128.931,222.057 128.301,221.672 127.531 C 221.230 126.646,220.732 126.097,220.317 126.038 C 219.956 125.986,219.610 125.677,219.548 125.352 C 219.288 123.993,211.925 118.445,209.277 117.614 C 208.585 117.397,207.578 116.953,207.038 116.629 C 206.499 116.304,205.609 116.038,205.060 116.038 C 204.512 116.038,203.538 115.776,202.896 115.455 C 200.886 114.451,196.646 113.743,193.851 113.944 C 188.847 114.305,184.710 114.944,183.886 115.484 C 183.434 115.780,182.452 116.117,181.705 116.231 C 180.957 116.346,179.921 116.660,179.403 116.929 C 178.884 117.198,178.270 117.451,178.038 117.491 C 177.807 117.530,177.383 117.766,177.095 118.016 C 176.808 118.265,176.196 118.558,175.737 118.667 C 175.277 118.776,174.654 118.960,174.351 119.076 C 173.588 119.369,173.893 116.488,174.852 114.344 C 175.230 113.499,175.615 111.942,175.707 110.885 C 175.805 109.759,176.117 108.616,176.459 108.128 C 176.781 107.668,177.044 107.058,177.044 106.770 C 177.044 106.483,177.193 105.970,177.375 105.630 C 177.755 104.920,177.230 99.188,176.730 98.585 C 176.565 98.387,176.361 97.598,176.277 96.832 C 176.020 94.507,175.577 92.778,175.093 92.208 C 174.841 91.910,174.240 90.888,173.758 89.937 C 171.854 86.175,166.050 80.288,163.436 79.465 C 162.445 79.154,161.635 78.768,161.635 78.608 C 161.635 78.170,159.891 77.358,158.948 77.358 C 158.490 77.358,157.740 77.095,157.281 76.772 C 156.822 76.450,155.881 76.003,155.189 75.779 C 154.497 75.556,153.215 75.124,152.340 74.820 C 151.465 74.516,149.554 74.175,148.095 74.062 C 146.635 73.949,144.920 73.809,144.284 73.751 C 143.648 73.692,143.077 73.695,143.015 73.756 M229.794 77.280 C 229.523 77.583,229.208 78.538,229.094 79.403 C 228.764 81.913,228.221 84.403,227.917 84.803 C 227.502 85.348,226.415 88.428,226.415 89.059 C 226.415 89.360,226.073 90.352,225.655 91.265 C 225.237 92.178,224.824 93.349,224.738 93.868 C 224.588 94.768,224.139 96.254,223.077 99.371 C 221.762 103.229,222.000 108.840,223.507 109.527 C 224.298 109.888,225.786 108.832,225.786 107.910 C 225.786 107.651,226.004 107.198,226.271 106.904 C 226.568 106.576,226.793 105.617,226.852 104.433 C 226.919 103.071,227.103 102.384,227.473 102.114 C 227.792 101.881,228.076 101.074,228.196 100.065 C 228.329 98.938,228.588 98.263,228.997 97.976 C 229.435 97.670,229.690 96.919,229.921 95.253 C 230.096 93.988,230.470 92.522,230.751 91.995 C 231.033 91.469,231.269 90.812,231.276 90.536 C 231.283 90.260,231.449 89.835,231.644 89.592 C 232.477 88.555,233.717 83.730,233.874 80.914 L 234.036 78.023 232.977 77.377 C 231.679 76.586,230.448 76.548,229.794 77.280 M134.875 104.623 C 134.426 104.693,133.435 105.318,132.674 106.013 C 131.912 106.708,130.865 107.471,130.346 107.709 C 128.070 108.753,127.358 110.072,127.358 113.246 C 127.358 114.437,127.513 115.146,127.830 115.409 C 128.090 115.624,128.302 116.080,128.302 116.421 C 128.302 116.762,128.580 117.432,128.920 117.910 C 129.261 118.388,129.599 119.425,129.673 120.214 C 129.747 121.004,129.901 121.802,130.016 121.987 C 130.130 122.173,130.284 122.633,130.356 123.010 C 130.599 124.273,135.868 124.586,136.575 123.380 C 137.119 122.452,139.865 120.660,140.419 120.872 C 141.161 121.157,141.906 120.240,142.194 118.684 C 142.352 117.834,142.562 116.714,142.661 116.195 C 142.760 115.676,143.193 114.874,143.624 114.412 C 144.056 113.951,144.319 113.429,144.210 113.252 C 144.101 113.075,144.299 112.663,144.650 112.336 C 145.519 111.526,145.138 108.260,144.038 107.089 C 142.089 105.014,138.533 104.057,134.875 104.623 M285.478 138.613 L 283.063 138.705 281.184 140.590 C 280.150 141.627,279.330 142.647,279.362 142.857 C 279.561 144.166,280.873 144.410,282.181 143.381 C 283.091 142.665,284.961 142.370,286.025 142.774 C 286.406 142.919,287.827 143.192,289.182 143.381 C 291.083 143.645,291.831 143.901,292.459 144.503 C 292.907 144.932,293.565 145.283,293.921 145.283 C 294.278 145.283,294.929 145.566,295.369 145.912 C 295.809 146.258,296.382 146.541,296.642 146.541 C 297.249 146.541,299.241 148.467,299.510 149.314 C 300.028 150.946,301.788 151.921,304.036 151.822 L 306.132 151.730 306.030 149.857 C 305.889 147.284,304.502 144.931,302.188 143.343 C 301.244 142.695,300.195 141.947,299.857 141.680 C 299.520 141.413,298.865 141.195,298.402 141.195 C 297.940 141.195,297.386 140.984,297.173 140.727 C 296.959 140.469,296.667 140.331,296.525 140.419 C 296.382 140.507,295.231 140.280,293.966 139.914 C 289.272 138.556,288.821 138.487,285.478 138.613 M188.050 147.420 C 183.252 150.336,182.799 150.714,182.035 152.450 C 181.626 153.379,181.114 154.287,180.897 154.467 C 180.680 154.647,180.503 155.201,180.503 155.699 C 180.503 156.197,180.362 156.604,180.189 156.604 C 180.016 156.604,179.874 156.840,179.874 157.129 C 179.874 157.418,179.643 157.911,179.360 158.223 C 179.077 158.536,178.806 159.155,178.757 159.599 C 178.708 160.044,178.503 160.607,178.300 160.851 C 177.294 162.064,178.593 163.854,181.267 164.941 C 183.063 165.671,188.572 166.061,188.963 165.487 C 189.066 165.335,189.858 164.736,190.723 164.158 C 193.071 162.586,195.912 159.498,195.912 158.518 C 195.912 158.348,196.251 157.843,196.665 157.396 C 197.079 156.949,197.509 156.096,197.621 155.501 C 197.733 154.906,198.063 154.286,198.355 154.123 C 199.278 153.606,199.068 151.330,198.027 150.572 C 197.556 150.229,197.170 149.808,197.170 149.638 C 197.170 148.847,194.904 147.226,193.542 147.043 C 189.627 146.519,189.520 146.526,188.050 147.420 M136.635 159.119 C 136.289 159.268,135.628 159.400,135.166 159.412 C 134.703 159.424,133.925 159.759,133.436 160.156 C 132.947 160.552,131.950 161.138,131.220 161.457 C 130.490 161.776,129.654 162.300,129.363 162.622 C 129.072 162.944,128.654 163.208,128.435 163.208 C 128.215 163.208,127.615 163.561,127.101 163.994 C 126.588 164.426,126.089 164.780,125.993 164.780 C 125.897 164.780,125.447 165.124,124.992 165.546 C 124.538 165.967,123.480 166.670,122.641 167.109 C 121.803 167.547,120.771 168.228,120.348 168.623 C 119.524 169.392,116.978 171.630,116.271 172.206 C 116.034 172.399,115.532 172.722,115.154 172.924 C 114.776 173.126,114.190 173.835,113.851 174.500 C 113.512 175.165,113.034 175.786,112.788 175.880 C 112.333 176.054,110.377 178.758,110.377 179.212 C 110.377 179.350,110.078 179.732,109.713 180.061 C 108.917 180.779,106.705 183.666,105.717 185.277 C 105.327 185.913,104.900 186.479,104.769 186.534 C 104.405 186.688,101.258 191.944,101.258 192.397 C 101.258 192.616,100.705 193.531,100.029 194.432 C 99.352 195.332,98.640 196.670,98.444 197.404 C 98.249 198.139,97.831 198.988,97.516 199.291 C 96.799 199.979,96.567 200.946,96.213 204.717 C 96.059 206.360,95.771 208.583,95.574 209.657 C 95.155 211.948,95.462 215.947,96.107 216.592 C 96.345 216.830,96.619 217.404,96.716 217.868 C 96.813 218.331,97.027 218.923,97.191 219.182 C 97.354 219.442,97.568 219.866,97.666 220.126 C 97.764 220.385,97.976 220.810,98.138 221.069 C 98.300 221.329,98.604 221.895,98.814 222.327 C 99.250 223.226,101.876 225.769,102.378 225.779 C 102.561 225.783,102.986 226.039,103.321 226.348 C 103.656 226.657,104.391 227.099,104.953 227.330 C 105.515 227.560,105.975 227.874,105.975 228.026 C 105.975 228.178,106.190 228.302,106.453 228.302 C 106.716 228.302,107.491 228.656,108.176 229.088 C 108.868 229.525,109.893 229.874,110.482 229.874 C 111.065 229.874,112.207 230.228,113.020 230.660 C 114.082 231.225,114.987 231.447,116.232 231.447 C 117.186 231.447,118.210 231.577,118.508 231.737 C 119.632 232.338,137.999 232.104,140.094 231.461 C 140.613 231.302,142.099 231.095,143.396 231.001 C 144.693 230.907,146.772 230.700,148.015 230.541 C 149.258 230.382,150.798 230.323,151.436 230.409 C 152.185 230.510,152.685 230.423,152.844 230.166 C 153.084 229.778,154.011 229.726,156.289 229.973 C 158.564 230.219,159.053 232.707,156.920 233.176 C 154.659 233.672,153.443 242.211,154.748 248.428 C 154.912 249.206,155.176 250.763,155.334 251.887 C 155.493 253.011,156.016 254.780,156.496 255.818 C 156.977 256.855,157.326 257.909,157.273 258.160 C 157.220 258.410,157.400 258.779,157.673 258.978 C 158.214 259.374,159.265 261.635,158.908 261.635 C 158.786 261.635,159.058 262.024,159.510 262.500 C 159.962 262.976,160.429 263.754,160.546 264.230 C 160.664 264.705,160.924 265.094,161.125 265.094 C 161.326 265.094,161.947 265.926,162.506 266.943 C 163.065 267.959,163.735 268.967,163.994 269.183 C 164.253 269.398,164.465 269.812,164.465 270.103 C 164.465 270.393,165.668 271.845,167.138 273.328 C 168.608 274.812,169.811 276.260,169.811 276.548 C 169.811 277.948,171.077 278.900,172.686 278.710 C 173.651 278.595,174.214 278.649,174.214 278.856 C 174.214 279.036,174.603 279.335,175.079 279.520 C 175.554 279.706,176.578 280.215,177.354 280.652 C 178.129 281.089,179.053 281.447,179.406 281.447 C 179.760 281.447,180.395 281.689,180.819 281.986 C 181.243 282.283,181.985 282.484,182.470 282.433 C 183.078 282.369,183.527 282.559,183.921 283.046 C 184.424 283.667,184.850 283.767,187.451 283.880 C 189.285 283.959,190.588 284.165,190.881 284.422 C 191.222 284.723,192.387 284.824,195.104 284.789 C 197.600 284.756,199.112 284.873,199.621 285.137 C 200.622 285.657,201.095 285.639,201.572 285.063 C 201.836 284.745,202.546 284.591,203.749 284.591 C 204.731 284.591,205.669 284.471,205.833 284.323 C 205.998 284.176,206.840 283.877,207.704 283.660 C 208.569 283.442,209.877 282.997,210.610 282.670 C 211.343 282.343,212.136 282.075,212.371 282.075 C 212.607 282.075,213.465 281.722,214.278 281.289 C 215.091 280.857,215.955 280.503,216.198 280.503 C 216.440 280.503,217.359 280.079,218.239 279.560 C 219.119 279.041,220.185 278.616,220.608 278.616 C 221.031 278.616,221.664 278.369,222.016 278.066 C 222.368 277.763,223.749 276.927,225.086 276.208 C 229.167 274.011,228.552 271.609,224.214 272.807 C 224.127 272.830,223.632 272.958,223.113 273.090 C 222.594 273.222,221.724 273.528,221.179 273.772 C 219.584 274.483,217.827 273.788,218.514 272.717 C 218.543 272.672,218.349 272.216,218.084 271.703 C 217.482 270.538,217.751 267.296,218.451 267.296 C 218.692 267.296,219.243 267.064,219.675 266.781 C 220.107 266.498,220.549 266.356,220.657 266.464 C 220.765 266.573,221.066 266.486,221.326 266.271 C 221.585 266.056,222.730 265.854,223.870 265.822 C 227.105 265.731,228.977 265.324,230.390 264.405 C 231.106 263.939,232.167 263.436,232.748 263.286 C 233.646 263.055,233.820 262.858,233.906 261.978 C 233.974 261.276,233.894 261.012,233.656 261.158 C 233.464 261.277,233.135 261.239,232.926 261.073 C 232.421 260.670,225.871 260.615,225.625 261.012 C 225.334 261.483,220.038 261.398,219.372 260.912 C 218.662 260.393,218.532 254.805,219.220 254.379 C 219.578 254.158,219.971 252.174,220.242 249.214 C 220.290 248.695,220.566 247.502,220.856 246.562 C 221.146 245.623,221.384 244.393,221.384 243.829 C 221.384 243.266,221.524 242.718,221.695 242.612 C 221.867 242.506,221.987 241.896,221.962 241.257 C 221.934 240.522,222.347 239.118,223.084 237.444 C 225.129 232.796,222.914 229.720,219.557 232.545 C 218.679 233.284,218.489 233.754,218.065 236.242 C 217.715 238.295,217.616 238.577,216.990 239.298 C 216.639 239.703,216.352 240.288,216.352 240.599 C 216.352 241.315,215.701 242.767,215.380 242.767 C 215.247 242.767,215.141 243.439,215.144 244.261 C 215.151 246.152,214.677 249.290,214.230 250.314 C 214.042 250.747,213.722 253.365,213.519 256.132 C 213.317 258.899,213.126 261.190,213.094 261.223 C 212.960 261.361,209.539 261.357,208.951 261.219 C 208.599 261.136,207.507 260.968,206.524 260.845 C 204.263 260.563,204.090 260.332,204.150 257.680 C 204.177 256.483,204.122 255.111,204.029 254.631 C 203.935 254.151,203.981 253.683,204.130 253.590 C 204.280 253.498,204.404 252.334,204.405 251.003 C 204.406 249.673,204.543 247.405,204.709 245.963 C 205.060 242.904,204.507 241.038,203.249 241.038 C 200.846 241.038,201.120 238.464,203.570 238.017 C 206.796 237.429,209.279 236.479,210.063 235.533 C 210.619 234.862,211.125 234.586,211.792 234.588 C 212.489 234.590,212.957 234.313,213.582 233.531 C 214.250 232.694,214.598 232.503,215.234 232.624 C 215.842 232.740,216.483 232.440,217.840 231.405 C 218.830 230.649,220.032 229.786,220.512 229.486 C 221.457 228.894,221.767 227.004,220.998 226.528 C 220.097 225.971,218.361 226.074,217.777 226.719 C 217.459 227.071,217.008 227.358,216.775 227.358 C 216.543 227.358,216.352 227.500,216.352 227.673 C 216.352 227.846,215.982 227.987,215.529 227.987 C 215.063 227.987,214.240 228.396,213.631 228.931 C 213.040 229.450,212.310 229.874,212.009 229.874 C 211.707 229.874,211.182 230.067,210.840 230.303 C 210.499 230.538,209.558 230.828,208.749 230.947 C 207.939 231.067,206.932 231.435,206.511 231.767 C 206.089 232.098,205.655 232.279,205.545 232.170 C 205.435 232.060,205.027 232.121,204.638 232.305 C 203.503 232.844,202.116 233.294,201.101 233.453 C 200.582 233.534,199.733 233.681,199.214 233.779 C 198.695 233.878,197.421 234.031,196.384 234.119 C 191.733 234.515,188.956 234.904,188.308 235.250 C 186.796 236.060,175.095 234.883,173.436 233.755 C 173.095 233.523,172.511 233.333,172.138 233.333 C 171.766 233.333,171.284 233.121,171.069 232.862 C 170.854 232.602,170.297 232.390,169.832 232.390 C 169.367 232.390,168.400 232.107,167.684 231.761 C 166.968 231.415,166.262 231.132,166.116 231.132 C 164.472 231.132,161.024 225.811,161.115 223.415 L 161.178 221.777 159.677 221.743 C 158.851 221.725,158.176 221.848,158.176 222.018 C 158.176 222.188,157.915 222.327,157.596 222.327 C 156.969 222.327,156.084 223.167,155.522 224.295 C 155.291 224.760,154.868 225.011,154.284 225.032 C 153.796 225.050,153.304 225.191,153.192 225.347 C 153.079 225.502,150.157 225.641,146.698 225.655 C 142.878 225.670,139.791 225.832,138.836 226.067 C 136.004 226.763,119.372 226.926,118.367 226.268 C 117.877 225.947,117.205 225.790,116.717 225.883 C 116.193 225.984,115.402 225.766,114.540 225.285 C 113.795 224.869,112.931 224.528,112.620 224.528 C 112.309 224.528,111.963 224.437,111.851 224.325 C 111.740 224.213,111.255 224.091,110.775 224.053 C 110.295 224.015,109.352 223.612,108.681 223.156 C 108.009 222.700,107.293 222.327,107.090 222.327 C 106.887 222.327,106.244 221.690,105.660 220.912 C 105.077 220.134,104.353 219.497,104.052 219.497 C 102.112 219.497,100.285 207.952,101.930 206.087 C 102.276 205.695,102.392 205.164,102.285 204.468 C 102.198 203.898,102.342 202.837,102.605 202.109 C 102.869 201.382,103.177 200.377,103.289 199.876 C 103.487 198.998,104.950 195.790,105.745 194.495 C 106.588 193.121,109.930 188.183,110.319 187.737 C 111.265 186.653,112.672 184.687,113.122 183.820 C 113.387 183.310,113.762 182.732,113.956 182.536 C 114.150 182.340,114.591 181.786,114.937 181.306 C 115.283 180.826,115.708 180.270,115.881 180.071 C 119.156 176.297,120.678 174.634,121.066 174.406 C 121.327 174.252,122.248 173.402,123.113 172.517 C 123.978 171.633,125.110 170.721,125.629 170.491 C 126.635 170.046,129.417 168.015,130.975 166.590 C 131.494 166.115,132.151 165.726,132.435 165.725 C 132.719 165.724,133.036 165.504,133.139 165.236 C 133.241 164.968,134.141 164.393,135.138 163.959 C 136.134 163.525,137.212 163.026,137.532 162.851 C 137.895 162.653,139.288 162.616,141.222 162.753 C 144.795 163.006,145.130 162.791,144.038 160.941 C 143.035 159.242,138.784 158.196,136.635 159.119 M267.767 174.539 C 267.075 174.680,265.983 175.018,265.340 175.291 C 264.697 175.563,263.835 175.786,263.424 175.786 C 261.678 175.786,261.094 178.498,262.499 180.076 C 263.182 180.842,265.480 181.152,265.864 180.529 C 265.962 180.371,266.643 180.232,267.377 180.220 C 268.110 180.208,269.560 180.070,270.597 179.912 C 271.708 179.744,272.607 179.742,272.783 179.907 C 272.947 180.062,273.753 180.189,274.573 180.189 C 275.393 180.189,276.140 180.312,276.233 180.463 C 276.401 180.735,278.233 181.258,278.708 181.170 C 278.844 181.144,279.269 181.293,279.651 181.499 C 280.033 181.706,280.662 181.910,281.047 181.953 C 281.433 181.996,282.066 182.253,282.454 182.525 C 282.842 182.797,283.353 183.019,283.591 183.019 C 283.828 183.019,284.406 183.292,284.875 183.626 C 285.344 183.960,286.357 184.481,287.125 184.783 C 287.893 185.086,289.072 185.697,289.745 186.141 C 290.418 186.586,291.289 187.128,291.681 187.346 C 292.073 187.563,292.541 188.165,292.721 188.682 C 292.902 189.199,293.214 189.623,293.416 189.623 C 293.971 189.623,297.484 193.447,297.484 194.051 C 297.484 194.340,297.697 194.753,297.956 194.969 C 298.215 195.184,298.428 195.631,298.428 195.963 C 298.428 196.295,298.700 196.950,299.033 197.418 C 299.451 198.008,299.696 199.045,299.827 200.786 C 299.931 202.170,300.094 203.821,300.189 204.456 C 300.299 205.197,300.196 205.874,299.900 206.343 C 299.647 206.746,299.341 207.768,299.222 208.615 C 299.102 209.462,298.888 210.382,298.747 210.659 C 298.605 210.937,298.303 211.800,298.076 212.579 C 297.606 214.192,296.724 215.870,295.805 216.901 C 295.459 217.290,295.260 217.692,295.364 217.796 C 295.560 217.992,294.460 220.122,293.191 222.007 C 292.785 222.609,292.453 223.325,292.453 223.598 C 292.453 223.871,292.245 224.368,291.991 224.704 C 291.737 225.040,291.525 225.483,291.519 225.688 C 291.514 225.894,291.087 226.530,290.571 227.103 C 290.055 227.676,289.029 228.819,288.291 229.643 C 286.661 231.464,281.105 237.098,279.208 238.855 C 278.450 239.557,276.804 240.793,275.550 241.600 C 274.296 242.408,273.270 243.198,273.270 243.355 C 273.270 243.512,272.775 243.734,272.170 243.847 C 271.564 243.961,271.069 244.193,271.069 244.364 C 271.069 244.534,270.822 244.761,270.519 244.867 C 268.671 245.517,267.881 247.204,268.604 248.958 C 268.805 249.444,269.028 250.267,269.101 250.786 C 269.173 251.305,269.433 251.953,269.679 252.226 C 269.925 252.499,270.126 253.012,270.126 253.367 C 270.126 253.721,270.341 254.190,270.604 254.408 C 270.934 254.682,271.066 255.307,271.029 256.425 C 271.000 257.315,271.144 258.357,271.348 258.739 C 271.553 259.121,271.627 259.434,271.513 259.434 C 271.400 259.434,271.453 259.611,271.631 259.827 C 271.983 260.252,272.498 262.503,272.382 263.105 C 272.342 263.308,272.456 263.564,272.633 263.674 C 272.811 263.784,272.956 264.396,272.956 265.034 C 272.957 266.303,273.977 272.099,274.737 275.157 C 275.022 276.300,275.087 293.818,274.816 296.226 C 274.689 297.351,274.496 299.119,274.387 300.157 C 274.093 302.954,273.852 304.202,273.525 304.614 C 273.365 304.817,273.190 305.705,273.137 306.586 C 273.080 307.548,272.824 308.429,272.499 308.789 C 272.140 309.185,271.932 310.008,271.885 311.219 C 271.845 312.226,271.504 313.827,271.127 314.775 C 270.749 315.724,270.439 316.786,270.438 317.134 C 270.437 317.482,270.225 318.173,269.967 318.668 C 269.708 319.163,269.497 320.048,269.497 320.633 C 269.497 321.219,269.371 321.698,269.217 321.698 C 269.064 321.698,268.846 322.187,268.734 322.785 C 268.622 323.383,268.224 324.551,267.850 325.380 C 267.477 326.209,267.208 327.134,267.253 327.437 C 267.298 327.740,267.190 327.987,267.012 327.987 C 266.646 327.987,266.052 328.985,265.877 329.895 C 265.812 330.229,265.902 330.503,266.077 330.503 C 266.252 330.503,266.102 330.914,265.745 331.416 C 265.387 331.919,265.094 332.641,265.094 333.022 C 265.094 333.403,264.742 333.991,264.312 334.330 C 263.882 334.668,263.413 335.396,263.270 335.947 C 263.106 336.580,262.786 336.982,262.402 337.040 C 260.876 337.269,260.449 337.459,259.447 338.353 C 258.786 338.943,258.035 339.308,257.481 339.308 C 256.988 339.308,256.508 339.506,256.415 339.747 C 256.323 339.989,255.620 340.519,254.853 340.926 C 254.086 341.333,253.459 341.780,253.459 341.921 C 253.459 342.061,253.319 342.089,253.147 341.983 C 252.976 341.877,252.233 342.203,251.496 342.708 C 250.760 343.213,249.591 343.907,248.899 344.251 C 246.295 345.547,243.952 346.867,243.173 347.480 C 242.730 347.828,242.040 348.113,241.639 348.113 C 240.768 348.113,239.308 348.736,239.308 349.107 C 239.308 349.252,238.981 349.371,238.581 349.371 C 238.182 349.371,237.573 349.619,237.229 349.921 C 236.215 350.813,235.283 351.258,234.427 351.258 C 233.986 351.258,233.312 351.462,232.929 351.711 C 232.546 351.961,231.879 352.235,231.447 352.322 C 229.831 352.645,228.646 353.104,227.779 353.742 C 226.789 354.471,223.778 355.346,222.258 355.346 C 221.718 355.346,221.021 355.577,220.709 355.859 C 220.338 356.194,219.349 356.426,217.854 356.527 C 216.596 356.612,215.354 356.858,215.094 357.074 C 214.589 357.495,212.378 358.031,210.041 358.298 C 209.251 358.389,208.189 358.634,207.683 358.842 C 207.176 359.050,206.676 359.205,206.573 359.186 C 206.469 359.167,205.620 359.353,204.686 359.600 C 203.752 359.847,201.926 360.142,200.629 360.255 C 199.332 360.368,198.097 360.598,197.884 360.766 C 197.672 360.934,196.327 361.118,194.897 361.174 C 193.466 361.231,191.547 361.408,190.632 361.568 C 187.784 362.067,172.520 361.750,170.727 361.154 C 169.890 360.876,168.952 360.691,168.643 360.742 C 168.334 360.794,167.657 360.672,167.138 360.472 C 166.619 360.272,164.992 359.951,163.522 359.759 C 160.140 359.316,157.784 358.610,155.940 357.487 C 155.143 357.001,154.232 356.604,153.916 356.604 C 153.601 356.604,153.050 356.345,152.693 356.028 C 152.336 355.712,151.443 355.282,150.708 355.072 C 149.972 354.863,149.371 354.556,149.371 354.390 C 149.371 354.224,149.181 354.088,148.948 354.088 C 148.716 354.088,148.114 353.734,147.612 353.302 C 147.109 352.870,146.555 352.516,146.381 352.516 C 146.206 352.516,145.897 352.250,145.694 351.925 C 145.378 351.419,142.937 350.000,142.382 350.000 C 141.574 350.000,129.664 337.902,129.256 336.668 C 129.056 336.061,128.627 335.480,128.302 335.377 C 127.978 335.275,127.528 334.772,127.301 334.262 C 127.075 333.751,126.784 333.333,126.653 333.333 C 126.522 333.333,126.415 333.133,126.415 332.888 C 126.415 332.643,126.272 332.395,126.098 332.336 C 125.923 332.278,125.719 331.915,125.645 331.529 C 125.570 331.143,125.077 330.038,124.548 329.075 C 124.019 328.111,123.494 326.730,123.381 326.004 C 123.268 325.279,123.064 324.612,122.927 324.522 C 122.529 324.258,120.699 318.828,120.545 317.453 C 120.468 316.761,120.283 315.912,120.135 315.566 C 118.600 311.977,117.340 289.932,118.546 287.762 C 118.683 287.517,118.727 286.810,118.644 286.190 C 118.550 285.481,118.738 284.422,119.152 283.333 C 119.515 282.382,119.811 281.246,119.811 280.809 C 119.811 280.372,120.010 279.730,120.253 279.383 C 120.497 279.036,120.764 278.332,120.848 277.819 C 121.362 274.674,121.933 273.026,123.732 269.497 C 123.952 269.064,124.306 267.967,124.519 267.059 C 124.732 266.150,125.033 265.328,125.189 265.232 C 125.344 265.136,125.472 264.723,125.472 264.315 C 125.472 263.907,125.673 263.172,125.920 262.683 C 126.166 262.193,126.542 261.191,126.756 260.456 C 126.970 259.721,127.243 259.119,127.364 259.119 C 127.634 259.119,129.874 255.529,129.874 255.096 C 129.874 254.925,130.086 254.703,130.346 254.603 C 130.605 254.504,130.818 254.152,130.818 253.822 C 130.818 253.492,131.052 253.027,131.338 252.790 C 131.624 252.553,132.051 251.899,132.286 251.336 C 132.521 250.774,132.852 250.314,133.023 250.314 C 133.194 250.314,133.333 250.126,133.333 249.896 C 133.333 249.666,133.672 249.296,134.087 249.074 C 134.501 248.852,135.143 248.261,135.514 247.759 C 135.885 247.257,136.855 246.542,137.670 246.170 C 138.484 245.798,139.897 244.739,140.808 243.816 C 141.720 242.893,142.596 242.138,142.754 242.138 C 143.689 242.138,144.939 240.390,144.556 239.619 C 143.893 238.282,142.281 238.410,140.577 239.937 C 139.805 240.629,138.868 241.195,138.494 241.195 C 136.986 241.195,135.815 241.635,134.634 242.647 C 133.950 243.232,133.185 243.711,132.933 243.711 C 132.325 243.711,128.302 248.074,128.302 248.734 C 128.302 248.899,127.844 249.500,127.284 250.068 C 126.725 250.636,126.305 251.222,126.352 251.369 C 126.399 251.517,125.937 252.248,125.325 252.995 C 124.714 253.741,124.214 254.507,124.214 254.698 C 124.214 254.888,123.876 255.579,123.464 256.232 C 123.051 256.886,122.390 258.192,121.996 259.135 C 121.601 260.078,121.090 261.072,120.859 261.346 C 120.629 261.619,120.440 262.255,120.440 262.761 C 120.439 263.266,119.895 264.741,119.230 266.038 C 118.565 267.335,117.715 269.349,117.341 270.514 C 116.967 271.678,116.407 273.094,116.096 273.658 C 115.784 274.223,115.340 275.535,115.108 276.572 C 114.876 277.610,114.424 279.268,114.104 280.257 C 113.784 281.246,113.522 282.647,113.522 283.371 C 113.522 284.094,113.303 285.765,113.036 287.083 C 112.227 291.079,112.569 308.016,113.549 312.453 C 113.737 313.300,113.963 314.560,114.053 315.252 C 114.142 315.943,114.342 316.644,114.498 316.808 C 114.653 316.972,114.780 317.580,114.780 318.157 C 114.780 318.735,115.063 319.762,115.409 320.440 C 115.755 321.118,116.038 321.950,116.038 322.289 C 116.038 323.300,116.969 326.822,117.483 327.752 C 117.745 328.227,117.889 328.616,117.802 328.616 C 117.715 328.616,118.061 329.409,118.570 330.378 C 119.080 331.347,119.497 332.343,119.497 332.592 C 119.497 333.256,120.715 335.546,121.662 336.661 C 123.377 338.681,123.899 339.462,123.899 340.005 C 123.899 340.314,124.040 340.566,124.211 340.566 C 124.567 340.566,126.415 342.424,126.415 342.782 C 126.415 342.912,127.618 344.230,129.088 345.710 C 130.558 347.190,131.761 348.518,131.761 348.661 C 131.761 348.804,132.221 349.188,132.783 349.515 C 133.345 349.842,133.876 350.191,133.962 350.291 C 134.049 350.390,134.827 351.038,135.692 351.730 C 136.557 352.421,137.595 353.377,138.000 353.852 C 138.404 354.328,138.922 354.717,139.151 354.717 C 139.380 354.717,139.914 355.129,140.338 355.633 C 140.765 356.141,141.794 356.782,142.646 357.070 C 143.491 357.356,144.465 357.844,144.811 358.154 C 145.486 358.758,147.694 359.822,153.381 362.281 C 154.202 362.637,155.157 363.057,155.503 363.216 C 155.849 363.375,157.221 363.783,158.553 364.123 C 159.884 364.462,161.229 364.872,161.540 365.032 C 161.852 365.193,162.882 365.423,163.829 365.544 C 164.776 365.665,165.731 365.914,165.953 366.098 C 166.184 366.290,167.058 366.364,168.005 366.273 C 168.999 366.178,170.216 366.293,171.069 366.563 C 172.290 366.949,177.966 367.303,184.748 367.416 C 187.754 367.466,196.700 366.922,197.013 366.670 C 197.186 366.531,198.035 366.342,198.899 366.250 C 202.010 365.921,205.831 365.214,206.504 364.843 C 206.882 364.635,207.634 364.465,208.176 364.465 C 208.718 364.465,209.419 364.327,209.735 364.158 C 210.051 363.989,210.806 363.789,211.413 363.714 C 212.020 363.639,212.849 363.367,213.255 363.110 C 213.661 362.853,215.060 362.565,216.364 362.469 C 218.883 362.285,219.683 362.088,220.440 361.467 C 220.700 361.255,221.690 361.017,222.642 360.938 C 223.593 360.860,225.035 360.490,225.848 360.115 C 226.660 359.740,227.475 359.434,227.660 359.434 C 227.845 359.434,228.242 359.304,228.542 359.146 C 230.044 358.354,231.486 357.849,231.761 358.019 C 232.061 358.204,232.767 357.942,236.006 356.445 C 236.871 356.045,238.113 355.618,238.766 355.496 C 239.418 355.373,240.126 355.029,240.338 354.730 C 240.702 354.218,242.049 353.337,242.506 353.313 C 242.622 353.307,243.079 352.987,243.522 352.602 C 243.965 352.217,244.685 351.812,245.123 351.702 C 245.562 351.592,246.024 351.322,246.152 351.102 C 246.663 350.221,249.514 350.192,249.980 351.063 C 250.695 352.399,252.680 352.208,255.721 350.510 C 256.532 350.056,257.352 349.686,257.542 349.686 C 257.732 349.686,258.412 349.155,259.053 348.506 C 259.695 347.858,260.840 346.832,261.598 346.226 C 263.914 344.377,265.723 342.435,265.723 341.799 C 265.723 341.467,265.841 341.195,265.985 341.195 C 266.128 341.195,266.396 340.877,266.580 340.487 C 268.863 335.656,271.288 331.161,272.091 330.275 C 272.394 329.941,272.642 329.389,272.642 329.048 C 272.642 328.707,272.788 328.281,272.967 328.102 C 273.147 327.922,273.367 327.363,273.456 326.860 C 273.546 326.356,273.965 325.183,274.388 324.254 C 274.811 323.326,275.157 322.260,275.157 321.887 C 275.157 321.514,275.350 320.930,275.586 320.589 C 276.033 319.942,276.170 319.369,276.846 315.319 C 277.071 313.973,277.420 312.706,277.621 312.505 C 277.823 312.303,277.987 311.759,277.987 311.296 C 277.987 310.833,278.204 309.936,278.468 309.304 C 278.733 308.671,278.919 307.698,278.883 307.142 C 278.847 306.587,278.988 305.818,279.195 305.434 C 279.402 305.050,279.626 303.918,279.692 302.918 C 279.758 301.918,279.951 300.744,280.122 300.308 C 280.293 299.872,280.437 298.355,280.443 296.938 C 280.449 295.520,280.549 294.205,280.667 294.015 C 281.109 293.300,280.847 273.204,280.386 272.502 C 279.833 271.658,279.442 269.926,279.517 268.656 C 279.550 268.107,279.429 267.566,279.248 267.455 C 279.068 267.343,278.993 267.135,279.081 266.993 C 279.169 266.850,279.030 266.228,278.771 265.610 C 278.513 264.991,278.302 263.923,278.302 263.236 C 278.302 262.549,278.160 261.899,277.987 261.792 C 277.814 261.686,277.673 261.177,277.673 260.663 C 277.673 260.149,277.483 259.273,277.251 258.716 C 276.906 257.890,276.373 255.703,276.352 255.031 C 276.337 254.526,275.065 252.487,274.458 251.995 C 272.349 250.287,276.297 245.960,283.891 241.658 C 284.510 241.307,285.073 240.851,285.141 240.646 C 285.210 240.440,285.963 239.760,286.815 239.134 C 287.668 238.509,288.365 237.797,288.365 237.552 C 288.365 237.307,288.489 237.107,288.640 237.107 C 289.114 237.107,291.024 235.136,292.297 233.333 C 292.969 232.382,294.001 231.057,294.589 230.390 C 295.177 229.722,295.849 228.732,296.081 228.189 C 296.314 227.646,297.185 226.260,298.016 225.109 C 299.839 222.587,301.268 220.063,301.757 218.503 C 301.956 217.870,302.416 216.933,302.781 216.421 C 303.506 215.403,304.098 214.032,304.236 213.050 C 304.387 211.973,304.793 210.549,305.042 210.220 C 305.794 209.227,306.244 201.825,305.682 199.686 C 305.523 199.080,305.327 197.877,305.247 197.013 C 305.097 195.404,304.215 192.859,303.612 192.296 C 303.427 192.123,302.442 190.743,301.423 189.230 C 300.405 187.716,299.461 186.478,299.325 186.478 C 299.093 186.478,298.278 185.774,296.069 183.668 C 295.550 183.173,294.536 182.406,293.816 181.963 C 293.095 181.520,292.421 181.021,292.318 180.853 C 292.214 180.686,291.601 180.376,290.955 180.163 C 290.309 179.951,289.595 179.517,289.369 179.197 C 289.143 178.878,288.694 178.616,288.371 178.616 C 288.048 178.616,287.380 178.276,286.886 177.861 C 286.284 177.354,285.731 177.154,285.209 177.254 C 284.781 177.335,283.773 177.120,282.968 176.775 C 282.163 176.430,281.431 176.221,281.342 176.310 C 281.185 176.467,279.983 176.139,277.673 175.308 C 275.266 174.442,270.180 174.047,267.767 174.539 M262.360 194.470 C 261.071 195.578,261.553 196.869,263.863 198.498 C 264.886 199.219,265.723 199.963,265.723 200.151 C 265.723 200.339,266.150 200.745,266.671 201.053 C 268.507 202.138,269.264 206.387,267.925 208.090 C 267.579 208.530,267.296 209.136,267.296 209.438 C 267.296 209.739,267.083 210.162,266.824 210.377 C 266.564 210.593,266.352 211.166,266.352 211.651 C 266.352 212.137,266.131 212.755,265.860 213.025 C 265.590 213.296,265.457 213.661,265.566 213.836 C 265.674 214.012,265.542 214.240,265.272 214.344 C 265.001 214.448,264.780 214.667,264.780 214.832 C 264.780 214.997,264.380 215.654,263.892 216.292 C 263.403 216.930,262.266 218.443,261.364 219.654 C 259.812 221.739,259.111 222.630,257.200 224.950 C 252.900 230.170,258.224 231.178,262.685 225.988 C 263.325 225.243,266.076 222.140,267.584 220.462 C 268.117 219.869,268.553 219.208,268.553 218.993 C 268.553 218.778,268.907 218.181,269.340 217.667 C 269.772 217.154,270.126 216.577,270.126 216.385 C 270.126 216.194,270.236 216.038,270.372 216.038 C 270.507 216.038,270.804 215.366,271.032 214.544 C 271.260 213.722,271.645 212.604,271.887 212.059 C 272.129 211.514,272.327 210.930,272.327 210.761 C 272.327 210.593,272.543 210.275,272.806 210.057 C 273.070 209.838,273.211 209.584,273.120 209.493 C 273.029 209.402,273.152 209.104,273.393 208.831 C 273.800 208.369,273.933 207.761,274.414 204.156 C 275.118 198.878,265.872 191.449,262.360 194.470 M162.264 235.063 C 162.479 235.322,162.794 235.535,162.963 235.535 C 163.564 235.535,165.503 236.601,166.239 237.336 C 166.650 237.748,167.133 237.994,167.312 237.883 C 167.491 237.772,167.808 237.816,168.017 237.980 C 168.226 238.144,168.820 238.380,169.338 238.504 C 170.763 238.846,171.077 239.239,170.885 240.445 C 170.760 241.233,170.885 241.733,171.358 242.334 C 171.963 243.104,171.993 243.474,171.864 248.615 C 171.681 255.866,171.959 255.470,167.184 255.261 C 162.798 255.069,162.494 254.986,161.957 253.836 C 161.740 253.369,161.437 252.742,161.284 252.441 C 161.131 252.141,161.006 251.500,161.006 251.018 C 161.006 250.535,160.800 249.845,160.548 249.485 C 160.049 248.774,160.037 239.123,160.531 236.085 C 160.788 234.500,161.466 234.101,162.264 235.063 M199.843 239.701 C 200.058 239.926,199.996 239.973,199.647 239.852 C 198.946 239.607,197.799 241.224,197.799 242.456 C 197.799 243.257,197.968 243.488,198.753 243.762 C 199.829 244.137,199.902 244.744,199.352 248.742 C 199.198 249.866,199.003 251.777,198.920 252.987 C 198.485 259.301,198.333 259.584,195.506 259.330 C 191.741 258.991,188.828 258.561,187.951 258.213 C 187.464 258.020,186.686 257.862,186.222 257.863 C 184.902 257.864,179.865 256.574,178.348 255.846 L 176.978 255.189 177.193 249.326 C 177.342 245.254,177.304 243.400,177.069 243.254 C 176.601 242.965,176.641 241.288,177.123 240.983 C 177.339 240.846,180.516 240.732,184.182 240.729 C 189.090 240.725,190.953 240.620,191.242 240.330 C 191.458 240.114,192.279 239.931,193.066 239.923 C 193.853 239.915,194.921 239.710,195.440 239.467 C 196.475 238.982,199.299 239.132,199.843 239.701 M170.934 261.455 C 171.229 261.858,171.267 262.210,171.057 262.601 C 170.891 262.912,170.755 264.232,170.755 265.535 C 170.755 268.018,170.032 268.557,169.040 266.812 C 168.859 266.493,168.052 265.174,167.247 263.881 C 166.442 262.588,165.861 261.327,165.957 261.078 C 166.230 260.367,170.367 260.680,170.934 261.455 M178.571 262.240 C 178.870 262.400,179.957 262.604,180.988 262.694 C 183.102 262.879,185.238 263.288,186.635 263.776 C 187.154 263.958,189.180 264.188,191.136 264.288 C 193.344 264.401,195.039 264.648,195.602 264.939 C 196.101 265.198,196.715 265.409,196.966 265.409 C 197.404 265.409,197.651 268.081,197.751 273.899 C 197.764 274.678,197.855 276.093,197.954 277.044 C 198.198 279.412,197.960 279.668,195.587 279.597 C 194.510 279.565,193.400 279.421,193.120 279.277 C 192.839 279.133,192.446 279.075,192.246 279.147 C 192.045 279.219,191.789 279.130,191.677 278.947 C 191.564 278.765,190.995 278.616,190.411 278.616 C 189.827 278.616,188.365 278.409,187.163 278.156 C 185.960 277.903,184.783 277.656,184.548 277.606 C 184.312 277.556,183.528 277.127,182.805 276.651 C 182.082 276.175,181.286 275.786,181.035 275.786 C 180.785 275.786,180.401 275.571,180.183 275.307 C 179.963 275.043,179.536 274.908,179.227 275.006 C 178.920 275.103,178.576 275.032,178.463 274.849 C 178.349 274.665,177.382 274.076,176.314 273.541 C 175.245 273.005,174.326 272.527,174.272 272.479 C 174.217 272.430,174.100 271.425,174.011 270.245 C 173.923 269.065,173.782 267.989,173.698 267.853 C 173.614 267.717,173.802 267.515,174.115 267.404 C 175.310 266.981,176.101 265.692,176.101 264.165 C 176.101 262.145,177.034 261.418,178.571 262.240 M210.050 266.764 L 213.024 266.824 213.256 267.767 C 213.839 270.142,214.259 271.593,214.539 272.209 C 214.747 272.663,214.726 273.097,214.477 273.564 C 214.274 273.942,214.195 274.642,214.300 275.119 C 214.481 275.945,213.653 276.730,212.602 276.730 C 212.459 276.730,211.793 276.965,211.123 277.253 C 210.454 277.541,209.693 277.819,209.434 277.872 C 207.060 278.352,205.134 278.802,204.874 278.937 C 204.701 279.026,203.852 279.097,202.987 279.094 L 201.415 279.088 201.415 276.101 C 201.415 273.459,201.515 272.918,202.280 271.430 C 202.819 270.382,203.145 269.250,203.145 268.427 C 203.145 266.680,203.498 266.394,205.452 266.563 C 206.345 266.640,208.414 266.731,210.050 266.764 " stroke="none" fill="#000000" fill-rule="evenodd"></path></g></svg>